<?xml version="1.0" encoding="utf-8"?>
<!-- Generator: Adobe Illustrator 24.0.1, SVG Export Plug-In . SVG Version: 6.00 Build 0)  -->
<svg version="1.1" id="Capa_1" xmlns="http://www.w3.org/2000/svg" xmlns:xlink="http://www.w3.org/1999/xlink" x="0px" y="0px"
	 viewBox="0 0 512 512" style="enable-background:new 0 0 512 512;" xml:space="preserve">
<style type="text/css">
	.st0{fill:#FFFFFF;}
</style>
<g>
	<g>
		<path class="st0" d="M502,5.6c-5-4.4-11.7-6.3-18.4-5.4L160.8,46.3C149.5,48,141,57.7,141,69.2v92.2v178.1
			c-13.7-8-29.5-12.5-46.4-12.5c-51,0-92.5,41.5-92.5,92.5S43.6,512,94.6,512s92.5-41.5,92.5-92.5V181.4l276.7-39.5v151.5
			c-13.7-8-29.5-12.5-46.4-12.5c-51,0-92.5,41.5-92.5,92.5s41.5,92.5,92.5,92.5s92.5-41.5,92.5-92.5V115.3V23.1
			C509.9,16.4,507,10,502,5.6z"/>
	</g>
</g>
</svg>
